<svg width="32" height="32" viewBox="0 0 32 32" fill="none" xmlns="http://www.w3.org/2000/svg">
<rect x="0.5" y="0.5" width="31" height="31" rx="15.5" stroke="#FAF6F0"/>
<path d="M13.808 21.5H10.272V21.004L10.912 20.748C11.344 20.588 11.52 20.348 11.888 19.82L14.56 16.06L12 12.284C11.488 11.532 11.424 11.468 11.072 11.292L10.528 11.036V10.54H15.264V11.036L14.736 11.26C14.432 11.404 14.304 11.532 14.304 11.708C14.304 11.836 14.384 12.028 14.528 12.236L16.144 14.652L17.76 12.348C18.016 11.964 18.128 11.788 18.128 11.644C18.128 11.484 18 11.34 17.664 11.212L17.216 11.036V10.54H20.784V11.036L20.144 11.292C19.712 11.452 19.536 11.692 19.152 12.22L16.736 15.548L19.552 19.756C20.064 20.524 20.16 20.588 20.496 20.748L21.04 21.004V21.5H16.304V21.004L16.816 20.78C17.136 20.636 17.264 20.508 17.264 20.332C17.264 20.204 17.168 20.012 17.024 19.804L15.152 16.956L13.296 19.692C13.04 20.06 12.912 20.252 12.912 20.396C12.912 20.556 13.04 20.716 13.376 20.828L13.808 21.004V21.5Z" fill="#FAF6F0"/>
</svg>
