<svg xmlns="http://www.w3.org/2000/svg" width="92.444" height="31.177" viewBox="0 0 92.444 31.177">
  <g id="Ambire_Wallet_logo" transform="translate(421.312 9.634)">
    <g id="_1967776972864" transform="translate(-421.312 -9.634)">
      <path id="Path_634" d="M1323.756,798.126l-1.113-2.111h-5.033l-1.112,2.111h-2.487q2.54-4.718,5.082-9.436h2.119l5.1,9.436Zm-3.63-6.873-1.51,2.848h3.01l-1.5-2.848Zm7.449,6.873V788.69h2.289l4.034,5.643,4-5.643h2.276v9.436h-2.205v-6.063l-3.183,4.559h-1.806l-3.2-4.507v6.012Zm22.118,0h-6.728V788.69h6.538a3.769,3.769,0,0,1,2.323.661,2.276,2.276,0,0,1,.891,1.883,2.3,2.3,0,0,1-1.052,1.98,2.647,2.647,0,0,1,.875.642,2.325,2.325,0,0,1,.569,1.575,2.411,2.411,0,0,1-.933,2.005A4.02,4.02,0,0,1,1349.693,798.126Zm.451-7.327a1.546,1.546,0,0,0-.956-.246h-3.942v1.866h3.955a1.443,1.443,0,0,0,.926-.269.856.856,0,0,0,.3-.689.8.8,0,0,0-.28-.662Zm.276,3.773a1.746,1.746,0,0,0-1.068-.276h-4.106v1.968h4.144a1.733,1.733,0,0,0,1.048-.257.83.83,0,0,0,.3-.7.875.875,0,0,0-.32-.733Zm4.826,3.554V788.69h2.318v9.436Zm5.112,0V788.69h6.121a3.84,3.84,0,0,1,2.57.8,2.876,2.876,0,0,1,.947,2.275,2.813,2.813,0,0,1-.84,2.113,3.291,3.291,0,0,1-1.7.811l3.192,3.438h-2.961l-3-3.249h-2.019v3.249h-2.318Zm6.976-7.205a1.789,1.789,0,0,0-1.146-.3h-3.512v2.334h3.512a1.791,1.791,0,0,0,1.141-.307,1.043,1.043,0,0,0,.349-.854,1.064,1.064,0,0,0-.344-.869Zm4.912,7.205V788.69h9.031v1.927h-6.751v1.74h5.955v1.914h-5.955v1.93h6.751v1.926h-9.031Z" transform="translate(-1288.833 -782.761)" fill="#fff" fill-rule="evenodd"/>
      <path id="Path_635" d="M1317.932,1209.574H1316.6l-2.588-6.734h1.766l1.632,4.522,1.8-4.522h1.49l1.816,4.508,1.633-4.508h1.749l-2.6,6.734h-1.5l-1.863-4.59-1.863,4.59Zm15.524,0h-1.47l-.794-1.507H1327.6l-.794,1.507h-1.774q1.813-3.367,3.627-6.734h1.512q1.816,3.369,3.636,6.734Zm-4.061-4.906-1.079,2.034h2.15Zm11.021,4.906h-5.7v-6.734h1.654v5.333h4.26v1.4Zm7.168,0h-5.7v-6.734h1.654v5.333h4.26v1.4Zm7.7,0h-6.237v-6.734h6.382v1.374h-4.755v1.243h4.25v1.365h-4.25v1.378h4.819v1.374Zm5.237,0h-1.446v-5.333h-2.87v-1.4h7.411v1.4h-2.888v5.333h-.209Z" transform="translate(-1288.833 -1184.326)" fill="#fff"/>
      <g id="Group_190">
        <path id="Path_636" d="M525.253,626.593l4.091,8.709a.246.246,0,0,1-.05.272l-10.762,10.4a.119.119,0,0,1-.2-.09v-9.554l6.782-6.547a.22.22,0,0,0,.071-.171l.02-3.017c0-.02.04-.02.05,0Z" transform="translate(-508.61 -614.827)" fill="#fff"/>
        <path id="Path_637" d="M518.34,802.209v9.554a.119.119,0,0,0,.2.091h0l10.762-10.4a.247.247,0,0,0,.05-.271h0l-4.2-5.554Z" transform="translate(-508.62 -780.709)" fill="#fff" fill-rule="evenodd"/>
        <path id="Path_638" d="M881.693,626.01h0a.023.023,0,0,0-.024.024h0l-.018,3.016a.25.25,0,0,1-.039.141l4.218,5.693a.263.263,0,0,0-.02-.151h0l-4.092-8.709a.028.028,0,0,0-.025-.014h0Z" transform="translate(-865.078 -614.27)" fill="#fff" fill-rule="evenodd"/>
        <path id="Path_639" d="M895.141,813.883a.261.261,0,0,0-.02-.151h0l-.212-.452-3.809-4.85,4.04,5.453Z" transform="translate(-874.39 -793.27)" fill="#fff" fill-rule="evenodd"/>
        <path id="Path_640" d="M40.8,235.517l-1.925,5.451a.253.253,0,0,0,.01.191l1.794,3.53-4.938,2.8a.129.129,0,0,1-.171-.05L34.5,245.212a.214.214,0,0,1,.02-.231l6.227-9.494a.031.031,0,0,1,.05.03Z" transform="translate(-33.828 -231.063)" fill="#fff"/>
        <path id="Path_641" d="M56.689,235.46h0a.027.027,0,0,0-.019.008h0l-5.962,9.088-.007.012,4.094-3.619.013-.037h0v0l1.911-5.411a.03.03,0,0,0-.029-.038Z" transform="translate(-49.749 -231.044)" fill="#fff" fill-rule="evenodd"/>
        <path id="Path_642" d="M34.509,532.193a.214.214,0,0,0-.02.231h0l1.068,2.222a.129.129,0,0,0,.171.05h0l4.938-2.8-1.794-3.53a.251.251,0,0,1-.01-.191Z" transform="translate(-33.818 -518.275)" fill="#fff" fill-rule="evenodd"/>
        <path id="Path_643" d="M9.733.039V8.517a.242.242,0,0,1-.05.141h0L.06,21.7a.233.233,0,0,0,.03.312h0L6.841,28.53a.116.116,0,0,0,.191-.04h0l7.336-17.167a.277.277,0,0,0,0-.181h0L9.824.019A.043.043,0,0,0,9.783-.01h0a.05.05,0,0,0-.05.049Z" transform="translate(-0.013 0.01)" fill="#fff" fill-rule="evenodd"/>
        <path id="Path_644" d="M517.72,0h0a.049.049,0,0,0-.05.049l0,8.478a.235.235,0,0,1-.012.071l4.588,2.416L517.76.029A.043.043,0,0,0,517.72,0Zm-.06,8.6.876.5Z" transform="translate(-507.953 0)" fill="#fff" fill-rule="evenodd"/>
        <path id="Path_645" d="M522.334,461.109h0a.264.264,0,0,0-.014-.088h0l-.058-.144-4.591-2.416.879.5Z" transform="translate(-507.963 -449.862)" fill="#fff" fill-rule="evenodd"/>
        <path id="Path_646" d="M37.284,531.791l-.254.386,4.35-4.008Z" transform="translate(-36.336 -518.265)" fill="#fff"/>
      </g>
    </g>
  </g>
</svg>
